<?xml version="1.0" encoding="utf-8"?>
<!-- Generator: Adobe Illustrator 19.0.0, SVG Export Plug-In . SVG Version: 6.00 Build 0)  -->
<svg version="1.1" xmlns="http://www.w3.org/2000/svg" xmlns:xlink="http://www.w3.org/1999/xlink" x="0px" y="0px"
	 viewBox="0 0 193.5 45.2" style="enable-background:new 0 0 193.5 45.2;" xml:space="preserve">
<style type="text/css">
	.st0{display:none;}
	.st1{display:inline;}
	.st2{fill:#FFFFFF;}
	.st3{fill:url(#SVGID_1_);}
	.st4{fill:url(#SVGID_2_);}
	.st5{fill:url(#SVGID_3_);}
</style>
<g id="White_Background" class="st0">
	<g class="st1">
		<rect x="-503.1" y="-33.4" class="st2" width="750" height="228"/>
	</g>
</g>
<g id="Artwork">
	<g>
		<g>
			<path d="M61.9,5.9c-2.8,1.2-6,4.5-7,8.8c-1.3,5.3,4,7.6,4.4,6.9c0.5-0.9-0.9-1.2-1.2-3.9c-0.4-3.6,1.3-7.6,3.4-9.3
				c0.4-0.3,0.4,0.1,0.4,1c0,1.5-0.1,15-0.1,17.8c0,3.8-0.2,5-0.4,6.2c-0.3,1.2-0.7,2-0.4,2.3c0.4,0.3,2.1-0.5,3-1.8
				c1.2-1.6,1.6-3.5,1.6-5.6c0.1-2.5,0.1-6.6,0.1-8.8c0-2.1,0-8.3,0-12C65.6,6.4,63,5.4,61.9,5.9z"/>
			<path d="M192.8,25.9c-0.4,0-0.6,0.4-0.8,1.1c-0.5,2.5-1.1,3-1.8,3c-0.8,0-1.5-1.2-1.7-3.7c-0.1-1.9-0.1-5.5,0.1-9.1
				c0-0.7-0.2-1.4-2.1-2.2c-0.8-0.3-2.1-0.8-2.7,0.7c-1.7,4.1-2.4,7.5-2.6,8.8c0,0.1-0.1,0.1-0.1-0.1c-0.1-1.1-0.3-3-0.4-7.1
				c0-0.8-0.2-1.5-1.1-2c-0.6-0.4-2.3-1-2.9-0.2c-0.5,0.6-1.2,2.3-1.8,4.3c-0.5,1.6-0.9,2.7-0.9,2.7s0-4.4,0-6
				c0-0.6-0.4-0.8-0.6-0.9c-0.6-0.2-1.7-0.4-2.2-0.4c-0.6,0-0.7,0.3-0.7,0.8c0,0.1-0.1,5.7-0.1,9.7V26c-0.3,1.8-1.4,4.3-2.6,4.3
				s-1.7-1-1.7-5.8c0-2.8,0.1-4,0.1-5.9c0-1.1,0.1-2,0.1-2.2c0-0.6-1.1-0.9-1.6-1c-0.5-0.1-0.9-0.2-1.3-0.1c-0.5,0-0.8,0.3-0.8,0.8
				v0.7c-0.6-1-1.6-1.6-2.3-1.8c-1.8-0.5-3.6-0.1-5,1.9c-1.1,1.5-1.8,3.3-2,5.8c-0.2,1.8-0.1,3.7,0.2,5.3c-0.4,1.8-1.2,2.5-2,2.5
				c-1.2,0-2.1-2-2-5.4c0.1-2.3,0.5-3.8,1-6.1c0.2-1,0-1.5-0.4-2c-0.4-0.4-1.2-0.7-2.4-0.4c-0.9,0.2-2.1,0.4-3.2,0.6
				c0,0,0.1-0.3,0.1-0.7c0.3-2.5-2.4-2.3-3.3-1.5c-0.5,0.5-0.9,1-1,2c-0.2,1.6,1.1,2.4,1.1,2.4c-0.4,2-1.5,4.5-2.6,6.4
				c-0.6,1-1,1.7-1.6,2.5c0-0.3,0-0.6,0-0.9c0-4.1,0-7.4,0.1-8.6c0-1.1,0.1-2,0.1-2.2c0-0.4-0.3-0.6-0.8-0.8
				c-0.5-0.2-1.1-0.3-1.6-0.4c-0.7-0.1-1.2,0.3-1.2,0.8v0.6c-0.6-1-1.6-1.6-2.3-1.8c-1.8-0.5-3.6-0.1-5,1.9c-1.1,1.5-1.8,3.7-2,5.8
				c-0.2,1.9-0.2,3.6,0.1,5c-0.3,1.4-1.1,2.8-2,2.8c-1.2,0-1.8-1-1.8-5.8c0-2.8,0.1-4,0.1-5.9c0-1.1,0.1-2,0.1-2.2
				c0-0.6-1.1-0.9-1.6-1c-0.5-0.1-1-0.2-1.3-0.1c-0.5,0-0.8,0.4-0.8,0.7v0.7c-0.6-1-1.6-1.6-2.3-1.8c-1.8-0.5-3.6,0-5,1.9
				c-0.9,1.3-1.7,2.7-2,5.8c-0.1,0.9-0.2,1.7-0.2,2.5c-0.4,2.2-2,4.8-3.3,4.8c-0.8,0-1.5-1.5-1.5-4.7c0-4.2,0.3-10.3,0.3-10.9
				c0,0,1.7,0,2,0c0.8,0,1.6,0,2.7,0c0.6,0,1.1-2,0.5-2.3c-0.3-0.1-2.1-0.2-2.8-0.2c-0.6,0-2.3-0.1-2.3-0.1s0.2-4,0.2-4.4
				c0-0.4-0.4-0.5-0.7-0.6c-0.6-0.3-1.2-0.4-1.9-0.5c-0.9-0.2-1.4,0-1.4,0.8c-0.1,1.2-0.2,4.7-0.2,4.7c-0.7,0-3-0.1-3.7-0.1
				c-0.6,0-1.3,2.7-0.4,2.8c1,0,2.8,0.1,3.9,0.1c0,0-0.1,6.1-0.1,8v0.6c-0.6,3.4-2.9,5.2-2.9,5.2c0.5-2.2-0.5-3.9-2.3-5.3
				c-0.7-0.5-2-1.5-3.4-2.6c0,0,0.8-0.8,1.6-2.5c0.5-1.2,0.6-2.5-0.8-2.8c-2.2-0.5-3.9,1.1-4.5,2.8c-0.4,1.3-0.2,2.3,0.6,3.3
				c0.1,0.1,0.1,0.1,0.2,0.2c-0.5,0.9-1.2,2.2-1.7,3.2c-1.6,2.7-2.8,4.9-3.6,4.9c-0.7,0-0.7-2.2-0.7-4.2c0-1.8,0.1-4.4,0.2-7.1
				c0-0.9-0.4-1.4-1.2-1.9c-0.5-0.3-1.4-0.8-2-0.8c-0.8,0-3.3,0.1-5.6,6.8c-0.3,0.8-0.9,2.4-0.9,2.4l0.1-8.1c0-0.2-0.1-0.4-0.3-0.5
				c-0.4-0.2-1.4-0.6-2.4-0.6c-0.4,0-0.7,0.2-0.7,0.6l-0.1,12.6c0,1,0,2.1,0.1,2.6c0.1,0.5,0.2,0.9,0.4,1.1c0.2,0.2,0.4,0.4,0.8,0.5
				c0.3,0.1,2.2,0.3,2.3-0.4c0.1-0.8,0.1-1.8,1.1-5.2c1.5-5.3,3.5-7.9,4.4-8.8c0.2-0.2,0.3-0.2,0.3,0.1c0,1.2-0.2,4.1-0.3,6.5
				c-0.2,6.6,0.9,7.8,2.7,7.8c1.3,0,3.2-1.3,5.1-4.6c1.2-2.1,2.4-4.1,3.3-5.5c0.6,0.6,1.3,1.2,1.9,1.8c1.6,1.5,2.1,2.9,1.7,4.2
				c-0.3,1-1.2,2.1-3,1.1c-0.5-0.3-0.7-0.5-1.2-0.9c-0.3-0.2-0.7-0.2-0.9,0c-0.7,0.5-1,1.1-1.3,1.9c-0.2,0.8,0.6,1.2,1.3,1.5
				c0.7,0.3,2.1,0.6,3.1,0.6c3.6,0.1,6.5-1.7,8.5-6.6c0.4,4.2,1.9,6.5,4.6,6.5c1.8,0,3.6-2.3,4.4-4.6c0.2,0.9,0.6,1.7,1,2.4
				c2.1,3.3,6.1,2.6,8.1-0.2c0.6-0.9,0.7-1.2,0.7-1.2c0.3,2.6,2.4,3.5,3.6,3.5c1.4,0,2.7-0.6,3.7-2.8c0.1,0.2,0.2,0.5,0.4,0.7
				c2.1,3.3,6,2.6,8.1-0.2c0.1-0.1,0.2-0.3,0.2-0.4l0.1,1.7c0,0-1.1,1-1.9,1.7c-3.1,2.8-5.4,5-5.6,7.5c-0.2,3.2,2.4,4.4,4.3,4.5
				c2.1,0.2,3.9-1,5-2.6c1-1.4,1.6-4.5,1.5-7.5c0-1.2,0-2.7-0.1-4.4c1.1-1.3,2.3-2.9,3.4-4.7c1.2-2,2.5-4.8,3.2-6.9
				c0,0,1.1,0,2.4-0.1c0.4,0,0.5,0.1,0.4,0.3c-0.1,0.3-1.5,6-0.2,9.7c0.9,2.6,3,3.4,4.2,3.4c1.4,0,2.8-1.1,3.5-2.7
				c0.1,0.2,0.2,0.3,0.3,0.5c2.1,3.3,6,2.6,8.1-0.2c0.5-0.6,0.7-1.2,0.7-1.2c0.4,2.7,2.5,3.5,3.7,3.5c1.3,0,2.4-0.5,3.4-2.8
				c0,1,0.1,1.8,0.2,2.1c0.1,0.2,0.4,0.4,0.7,0.5c1.2,0.4,2.3,0.2,2.8,0.1c0.3-0.1,0.5-0.3,0.6-0.9c0.1-1.6,0-4.4,0.5-6.4
				c0.8-3.4,1.6-4.7,2-5.4c0.2-0.4,0.4-0.4,0.4,0c0,0.8,0.1,3.1,0.4,6.2c0.2,2.3,0.5,3.6,0.8,4.1c0.7,1.2,1.5,1.3,2.2,1.3
				c0.4,0,1.4-0.1,1.3-0.9c0-0.4,0-2.7,0.8-6.1c0.5-2.2,1.4-4.2,1.8-4.9c0.1-0.3,0.2-0.1,0.2,0c-0.1,1.5-0.2,6.5,0.4,9.2
				c0.8,3.7,3.3,4.1,4.1,4.1c1.8,0,3.3-1.4,3.8-5C193.6,26.6,193.4,25.9,192.8,25.9z M117.4,23.7c-0.1,1.9-0.5,3.5-1.1,4.7
				c-1.1,2.1-3.2,2.8-4.2-0.3c-0.7-2.2-0.5-5.2-0.2-6.8c0.4-2.4,1.5-4.1,3.1-3.9C116.8,17.6,117.6,19.7,117.4,23.7z M133.8,23.7
				c-0.1,1.8-0.6,3.6-1.1,4.6c-1.1,2.1-3.3,2.8-4.2-0.3c-0.6-2.1-0.5-4.8-0.2-6.5c0.4-2.2,1.4-4.2,3.1-4.2
				C133.3,17.4,134.1,19.3,133.8,23.7z M134.3,36c0,3.3-0.5,6.2-1.6,7c-1.6,1.2-3.7,0.3-3.3-2.1c0.4-2.1,2.2-4.3,4.9-6.9
				C134.3,34,134.3,34.6,134.3,36z M162.7,23.7c-0.1,2-0.5,3.5-1.1,4.6c-1.1,2.1-3.2,2.8-4.2-0.3c-0.5-1.7-0.5-4.4-0.2-6.7
				c0.4-2.4,1.4-4.1,3.1-4C162.1,17.6,162.9,19.7,162.7,23.7z"/>
		</g>
		<g>
			<linearGradient id="SVGID_1_" gradientUnits="userSpaceOnUse" x1="0.2471" y1="41.277" x2="37.0106" y2="4.5135">
				<stop  offset="5.000000e-02" style="stop-color:#FFD521"/>
				<stop  offset="0.5011" style="stop-color:#F50000"/>
				<stop  offset="0.95" style="stop-color:#B900B4"/>
			</linearGradient>
			<path class="st3" d="M33.3,10.6c0-1.3-1.1-2.4-2.4-2.4c-1.3,0-2.4,1.1-2.4,2.4c0,1.3,1.1,2.4,2.4,2.4
				C32.3,13,33.3,11.9,33.3,10.6"/>
			<linearGradient id="SVGID_2_" gradientUnits="userSpaceOnUse" x1="0.247" y1="41.2769" x2="37.0105" y2="4.5133">
				<stop  offset="5.000000e-02" style="stop-color:#FFD521"/>
				<stop  offset="0.5011" style="stop-color:#F50000"/>
				<stop  offset="0.95" style="stop-color:#B900B4"/>
			</linearGradient>
			<path class="st4" d="M40.2,13.1c-0.1-2.2-0.4-3.6-0.9-4.9c-0.5-1.3-1.2-2.5-2.3-3.6c-1.1-1.1-2.3-1.8-3.6-2.3
				c-1.3-0.5-2.8-0.8-4.9-0.9c-2.2-0.1-2.8-0.1-8.3-0.1c-5.5,0-6.2,0-8.3,0.1C9.6,1.4,8.2,1.7,6.9,2.2C5.5,2.8,4.4,3.4,3.3,4.6
				C2.2,5.7,1.5,6.8,0.9,8.2C0.4,9.4,0.1,10.9,0,13.1c-0.1,2.2-0.1,2.8-0.1,8.3c0,5.5,0,6.2,0.1,8.3c0.1,2.2,0.4,3.6,0.9,4.9
				c0.5,1.3,1.2,2.5,2.3,3.6c1.1,1.1,2.3,1.8,3.6,2.3c1.3,0.5,2.8,0.8,4.9,0.9c2.2,0.1,2.9,0.1,8.3,0.1c5.5,0,6.2,0,8.3-0.1
				c2.2-0.1,3.6-0.4,4.9-0.9c1.3-0.5,2.5-1.2,3.6-2.3c1.1-1.1,1.8-2.3,2.3-3.6c0.5-1.3,0.8-2.8,0.9-4.9c0.1-2.2,0.1-2.8,0.1-8.3
				C40.4,15.9,40.3,15.2,40.2,13.1z M36.6,29.6c-0.1,2-0.4,3-0.7,3.8c-0.4,0.9-0.8,1.6-1.5,2.3c-0.7,0.7-1.4,1.1-2.3,1.5
				c-0.7,0.3-1.8,0.6-3.8,0.7C26.2,38,25.5,38,20.1,38c-5.4,0-6,0-8.2-0.1c-2-0.1-3-0.4-3.8-0.7c-0.9-0.4-1.6-0.8-2.3-1.5
				c-0.7-0.7-1.2-1.4-1.5-2.3c-0.3-0.7-0.6-1.8-0.7-3.8c-0.1-2.1-0.1-2.8-0.1-8.2c0-5.4,0-6,0.1-8.2c0.1-2,0.4-3,0.7-3.8
				c0.4-0.9,0.8-1.6,1.5-2.3C6.6,6.4,7.2,6,8.2,5.6C8.9,5.4,10,5,11.9,4.9c2.1-0.1,2.8-0.1,8.2-0.1c5.4,0,6,0,8.2,0.1
				c2,0.1,3,0.4,3.8,0.7C33,6,33.7,6.4,34.4,7.1c0.7,0.7,1.2,1.4,1.5,2.3c0.3,0.7,0.6,1.8,0.7,3.8c0.1,2.1,0.1,2.8,0.1,8.2
				C36.7,26.8,36.7,27.5,36.6,29.6z"/>
			<linearGradient id="SVGID_3_" gradientUnits="userSpaceOnUse" x1="0.2472" y1="41.277" x2="37.0107" y2="4.5135">
				<stop  offset="5.000000e-02" style="stop-color:#FFD521"/>
				<stop  offset="0.5011" style="stop-color:#F50000"/>
				<stop  offset="0.95" style="stop-color:#B900B4"/>
			</linearGradient>
			<path class="st5" d="M20.1,11c-5.7,0-10.4,4.7-10.4,10.4c0,5.7,4.6,10.4,10.4,10.4c5.7,0,10.4-4.7,10.4-10.4
				C30.5,15.7,25.9,11,20.1,11z M20.1,28.2c-3.7,0-6.7-3-6.7-6.7c0-3.7,3-6.7,6.7-6.7c3.7,0,6.7,3,6.7,6.7
				C26.9,25.1,23.8,28.2,20.1,28.2z"/>
		</g>
	</g>
</g>
</svg>
