<?xml version="1.0" encoding="utf-8"?>
<!-- Generator: Adobe Illustrator 19.0.0, SVG Export Plug-In . SVG Version: 6.00 Build 0)  -->
<svg version="1.1" id="Layer_1" xmlns="http://www.w3.org/2000/svg" xmlns:xlink="http://www.w3.org/1999/xlink" x="0px" y="0px"
	 viewBox="0 0 612.5 170" style="enable-background:new 0 0 612.5 170;" xml:space="preserve">
<style type="text/css">
	.st0{fill:#1ED760;}
</style>
<g>
	<g>
		<g>
			<path class="st0" d="M88,1.3C41.7,1.3,4.3,38.8,4.3,85c0,46.3,37.5,83.7,83.7,83.7c46.3,0,83.7-37.5,83.7-83.7
				C171.7,38.8,134.2,1.3,88,1.3z M126.4,122.1c-1.5,2.5-4.7,3.2-7.2,1.7c-19.7-12-44.4-14.7-73.6-8.1c-2.8,0.6-5.6-1.1-6.2-3.9
				c-0.6-2.8,1.1-5.6,3.9-6.2c31.9-7.3,59.3-4.2,81.3,9.3C127.1,116.4,127.9,119.6,126.4,122.1z M136.6,99.3c-1.9,3.1-5.9,4-9,2.2
				c-22.5-13.8-56.8-17.8-83.4-9.8c-3.5,1-7.1-0.9-8.1-4.3c-1-3.5,0.9-7.1,4.4-8.1c30.4-9.2,68.2-4.8,94.1,11.1
				C137.6,92.2,138.5,96.2,136.6,99.3z M137.5,75.5c-27-16-71.5-17.5-97.3-9.7c-4.1,1.3-8.5-1.1-9.8-5.2c-1.3-4.1,1.1-8.5,5.2-9.8
				c29.6-9,78.8-7.2,109.8,11.2c3.7,2.2,4.9,7,2.7,10.7C146.1,76.5,141.2,77.7,137.5,75.5z"/>
		</g>
	</g>
</g>
<g>
	<path class="st0" d="M202.8,49.6h35.1c16.6,0,28.7,10.7,28.7,26s-12.1,26-28.7,26h-16.3v23.7h-18.8V49.6z M236.1,84.3
		c6.5,0,11.1-3.5,11.1-8.8s-4.6-8.8-11.1-8.8h-14.5v17.6H236.1z"/>
	<path class="st0" d="M271,48.2h18.7v76.9H271V48.2z"/>
	<path class="st0" d="M350.2,91.3v33.8h-17.9v-4.8c-4,4-9.9,6.2-15.7,6.2c-12.1,0-21.7-7.4-21.7-18.2c0-11.1,10.7-18.9,24.1-18.9
		c4.2,0,8.9,1,13.3,2.8v-0.8c0-6-4.6-10.5-12.4-10.5c-5.4,0-9.5,1.7-14.3,4.2l-5.8-11.7c7.9-4,16.1-6.5,24.9-6.5
		C339.2,66.9,350.2,76.2,350.2,91.3z M332.3,108.1V102c-2.9-1.1-6.8-1.9-10.7-1.9c-5.1,0-9,3.2-9,7.6c0,4.4,3.5,7.3,8.5,7.3
		C326.5,115,331.5,112.4,332.3,108.1z"/>
	<path class="st0" d="M356.7,140.9l3.9-12.3c3,1.6,6,2.9,7.8,2.9c2.8,0,5.2-0.9,6.2-2.4l1.5-3.2l-23.3-57.5h19.1l13.3,37.5
		l12.5-37.5h18.9l-22.3,58.5c-4.5,11.7-12.3,18.1-21.7,18.1C367.5,144.9,361,143.3,356.7,140.9z"/>
	<path class="st0" d="M420.2,48.2h18.7v76.9h-18.7V48.2z"/>
	<path class="st0" d="M447,51.4c0-5.2,4.4-9.7,9.9-9.7c5.4,0,9.7,4.5,9.7,9.7c0,5.4-4.3,9.9-9.7,9.9C451.4,61.3,447,56.8,447,51.4z
		 M447.4,68.3H466v56.9h-18.6V68.3z"/>
	<path class="st0" d="M470.2,117.9l7.5-12c5.3,3.7,12.5,6.5,19.4,6.5c4.1,0,6.4-1.3,6.4-3.5c0-2.8-3.7-3.8-9.3-5.2
		c-11-2.5-21.2-5.4-21.3-17.7c0-10.9,8.9-19,23-19c8.5,0,16.7,3,23.1,7.3L512,86.4c-5-3.2-11.1-5.6-16.3-5.6c-3.4,0-5.8,1.5-5.8,3.3
		c0,2.5,2.4,3.1,9.1,4.8c10.1,2.4,21.5,5.7,21.5,18.7c0,11.4-9.2,18.8-23.9,18.8C487,126.4,477.1,123.3,470.2,117.9z"/>
	<path class="st0" d="M561.2,121.1c-3.4,3.2-9,5.4-13.9,5.4c-10.7,0-18.1-7.6-18.1-18.3V83.1h-7.5V68.3h7.5V52.6H547v15.6h11.8v14.8
		H547v21.7c0,3.6,2.2,6.2,5.2,6.2c2.1,0,4.2-0.8,5.3-1.9L561.2,121.1z"/>
	<path class="st0" d="M561.6,117.9l7.5-12c5.3,3.7,12.5,6.5,19.4,6.5c4.1,0,6.4-1.3,6.4-3.5c0-2.8-3.7-3.8-9.3-5.2
		c-11-2.5-21.2-5.4-21.3-17.7c0-10.9,8.9-19,23-19c8.5,0,16.7,3,23.1,7.3l-6.8,12.2c-5-3.2-11.1-5.6-16.3-5.6
		c-3.4,0-5.8,1.5-5.8,3.3c0,2.5,2.4,3.1,9.1,4.8c10.1,2.4,21.5,5.7,21.5,18.7c0,11.4-9.2,18.8-23.9,18.8
		C578.4,126.4,568.5,123.3,561.6,117.9z"/>
</g>
</svg>
