<?xml version="1.0" encoding="utf-8"?>
<!-- Generator: Adobe Illustrator 19.0.0, SVG Export Plug-In . SVG Version: 6.00 Build 0)  -->
<svg version="1.1" xmlns="http://www.w3.org/2000/svg" xmlns:xlink="http://www.w3.org/1999/xlink" x="0px" y="0px"
	 viewBox="0 0 454.9 89.3" style="enable-background:new 0 0 454.9 89.3;" xml:space="preserve">
<style type="text/css">
	.st0{fill:#1DA1F2;}
	.st1{fill:#14171A;}
	.st2{fill:#657786;}
</style>
<g id="Content">
	<path class="st0" d="M50.5,71.8c33.2,0,51.3-27.5,51.3-51.3c0-0.8,0-1.6-0.1-2.3c3.5-2.5,6.6-5.7,9-9.3c-3.2,1.4-6.7,2.4-10.4,2.8
		c3.7-2.2,6.6-5.8,7.9-10C104.8,3.7,101,5.2,96.9,6c-3.3-3.5-8-5.7-13.2-5.7c-10,0-18,8.1-18,18c0,1.4,0.2,2.8,0.5,4.1
		c-15-0.8-28.3-7.9-37.2-18.8c-1.6,2.7-2.4,5.8-2.4,9.1c0,6.3,3.2,11.8,8,15c-3-0.1-5.7-0.9-8.2-2.3c0,0.1,0,0.2,0,0.2
		c0,8.7,6.2,16,14.5,17.7c-1.5,0.4-3.1,0.6-4.8,0.6c-1.2,0-2.3-0.1-3.4-0.3c2.3,7.2,9,12.4,16.9,12.5c-6.2,4.8-14,7.7-22.4,7.7
		c-1.5,0-2.9-0.1-4.3-0.2C30.8,68.8,40.3,71.8,50.5,71.8"/>
	<g>
		<path class="st1" d="M154.1,19.1c-0.1,0.3-0.1,0.6-0.1,0.9c0,0.3,0.1,0.5,0.2,0.7c0.1,0.2,0.3,0.3,0.5,0.3c0.6,0,1.2-0.2,1.8-0.6
			c0.6-0.4,1.1-0.9,1.6-1.6c0.5-0.7,0.8-1.5,1.1-2.4c0.3-0.9,0.4-2,0.4-3.1c0-1.7-0.3-3.1-0.9-4.4c-0.6-1.3-1.4-2.3-2.4-3.2
			c-1-0.9-2.2-1.5-3.6-2c-1.4-0.4-2.8-0.7-4.4-0.7c-1.8,0-3.4,0.3-4.8,0.9s-2.7,1.5-3.7,2.6c-1,1.1-1.8,2.4-2.4,3.9
			c-0.6,1.5-0.8,3.1-0.8,4.9c0,1.8,0.3,3.5,0.9,5c0.6,1.5,1.5,2.8,2.5,3.8c1.1,1.1,2.4,1.9,3.9,2.5c1.5,0.6,3.1,0.9,4.9,0.9
			c1.7,0,3.4-0.3,5-0.9c1.6-0.6,2.9-1.4,4-2.5h3.5c-1.4,2.2-3.2,3.8-5.4,5c-2.2,1.1-4.6,1.7-7.2,1.7c-2.2,0-4.3-0.4-6.2-1.2
			c-1.9-0.8-3.6-1.9-5.1-3.2s-2.6-3-3.4-4.9c-0.8-1.9-1.2-4-1.2-6.2c0-2.2,0.4-4.2,1.2-6.1c0.8-1.9,2-3.5,3.4-4.9
			c1.4-1.4,3.1-2.5,5-3.3c1.9-0.8,3.9-1.2,6.1-1.2c1.9,0,3.7,0.3,5.4,0.9c1.7,0.6,3.3,1.5,4.6,2.6c1.3,1.1,2.4,2.4,3.2,4
			c0.8,1.6,1.2,3.3,1.2,5.2c0,2.1-0.4,4-1.1,5.5c-0.8,1.5-1.7,2.8-2.7,3.7c-1.1,1-2.1,1.7-3.2,2.1c-1.1,0.5-2,0.7-2.6,0.7
			c-0.9,0-1.6-0.2-2.1-0.7c-0.5-0.4-0.8-1-0.9-1.7H150c-0.5,0.8-1.1,1.4-2,1.8c-0.8,0.4-1.6,0.6-2.5,0.6c-0.9,0-1.7-0.2-2.5-0.6
			s-1.5-0.9-2.1-1.5c-0.6-0.7-1.1-1.4-1.4-2.3c-0.3-0.9-0.5-1.8-0.5-2.7c0-1.3,0.2-2.6,0.6-3.9c0.4-1.3,1-2.4,1.8-3.4
			c0.8-1,1.7-1.8,2.9-2.4c1.1-0.6,2.4-0.9,3.7-0.9c0.9,0,1.8,0.2,2.7,0.6c0.9,0.4,1.6,1.2,2.1,2.3l0.7-2.2h3.4l-2.6,10.7
			C154.2,18.5,154.2,18.8,154.1,19.1z M144.1,19.6c0.6,0.7,1.4,1,2.3,1c0.7,0,1.4-0.2,2.1-0.6c0.6-0.4,1.2-0.9,1.6-1.5
			s0.8-1.3,1.1-2c0.2-0.7,0.4-1.5,0.4-2.2c0-1-0.3-1.9-0.9-2.5c-0.6-0.7-1.4-1-2.3-1c-0.7,0-1.4,0.2-2.1,0.6
			c-0.6,0.4-1.2,0.9-1.6,1.5c-0.5,0.6-0.8,1.3-1.1,2c-0.2,0.7-0.4,1.4-0.4,2.1C143.2,18,143.5,18.9,144.1,19.6z"/>
		<path class="st1" d="M175,12.5c-0.9,0-1.7,0.2-2.4,0.6c-0.6,0.4-1.2,1-1.6,1.7c-0.4,0.7-0.7,1.4-0.9,2.2c-0.2,0.8-0.2,1.6-0.2,2.4
			c0,0.8,0.1,1.6,0.2,2.4c0.2,0.8,0.4,1.5,0.8,2.2s0.9,1.2,1.5,1.6c0.6,0.4,1.4,0.6,2.3,0.6c1.4,0,2.5-0.4,3.3-1.2
			c0.8-0.8,1.2-1.8,1.4-3.2h5.7c-0.4,2.9-1.5,5-3.3,6.5c-1.8,1.5-4.2,2.2-7,2.2c-1.6,0-3.1-0.3-4.4-0.8c-1.3-0.5-2.5-1.3-3.4-2.3
			c-0.9-1-1.7-2.1-2.2-3.5c-0.5-1.3-0.8-2.8-0.8-4.4c0-1.7,0.2-3.2,0.7-4.6c0.5-1.4,1.2-2.7,2.1-3.7c0.9-1,2.1-1.8,3.4-2.4
			c1.4-0.6,2.9-0.9,4.7-0.9c1.3,0,2.5,0.2,3.7,0.5c1.2,0.3,2.2,0.8,3.2,1.5c0.9,0.7,1.7,1.5,2.3,2.5c0.6,1,0.9,2.2,1,3.6h-5.8
			C178.9,13.8,177.5,12.5,175,12.5z"/>
		<path class="st1" d="M193.4,0.5v11.2h0.1c0.7-1.2,1.7-2.2,2.9-2.7s2.3-0.9,3.4-0.9c1.6,0,2.9,0.2,3.9,0.6c1,0.4,1.8,1,2.4,1.8
			c0.6,0.8,1,1.7,1.2,2.8c0.2,1.1,0.4,2.3,0.4,3.6v13.2h-5.9V18c0-1.8-0.3-3.1-0.8-4c-0.6-0.9-1.5-1.3-2.9-1.3
			c-1.6,0-2.8,0.5-3.5,1.4c-0.7,1-1.1,2.5-1.1,4.7v11.3h-5.9V0.5H193.4z"/>
		<path class="st1" d="M211.3,5.3V0.5h5.9v4.9H211.3z M217.1,8.7v21.5h-5.9V8.7H217.1z"/>
		<path class="st1" d="M226.8,0.5v29.7h-5.9V0.5H226.8z"/>
		<path class="st1" d="M236.5,0.5v29.7h-5.9V0.5H236.5z"/>
		<path class="st1" d="M246,0.5v11.2h0.1c0.7-1.2,1.7-2.2,2.9-2.7s2.3-0.9,3.4-0.9c1.6,0,2.9,0.2,3.9,0.6c1,0.4,1.8,1,2.4,1.8
			c0.6,0.8,1,1.7,1.2,2.8c0.2,1.1,0.4,2.3,0.4,3.6v13.2h-5.9V18c0-1.8-0.3-3.1-0.8-4c-0.6-0.9-1.5-1.3-2.9-1.3
			c-1.6,0-2.8,0.5-3.5,1.4c-0.7,1-1.1,2.5-1.1,4.7v11.3h-5.9V0.5H246z"/>
		<path class="st1" d="M263.8,14.7c0.5-1.4,1.3-2.6,2.2-3.6c1-1,2.1-1.7,3.5-2.3c1.4-0.5,2.9-0.8,4.6-0.8c1.7,0,3.2,0.3,4.6,0.8
			c1.4,0.5,2.5,1.3,3.5,2.3c1,1,1.7,2.2,2.2,3.6c0.5,1.4,0.8,3,0.8,4.7c0,1.7-0.3,3.3-0.8,4.7c-0.5,1.4-1.3,2.6-2.2,3.6
			c-1,1-2.1,1.7-3.5,2.3c-1.4,0.5-2.9,0.8-4.6,0.8c-1.7,0-3.2-0.3-4.6-0.8c-1.4-0.5-2.5-1.3-3.5-2.3c-1-1-1.7-2.2-2.2-3.6
			c-0.5-1.4-0.8-2.9-0.8-4.7C263,17.7,263.3,16.1,263.8,14.7z M269.2,21.9c0.2,0.8,0.4,1.6,0.9,2.2c0.4,0.7,0.9,1.2,1.6,1.6
			c0.7,0.4,1.5,0.6,2.5,0.6c1,0,1.8-0.2,2.5-0.6c0.7-0.4,1.2-0.9,1.6-1.6c0.4-0.7,0.7-1.4,0.9-2.2c0.2-0.8,0.2-1.7,0.2-2.5
			c0-0.9-0.1-1.7-0.2-2.5c-0.2-0.8-0.5-1.6-0.9-2.2c-0.4-0.6-0.9-1.2-1.6-1.6c-0.7-0.4-1.5-0.6-2.5-0.6c-1,0-1.8,0.2-2.5,0.6
			c-0.7,0.4-1.2,0.9-1.6,1.6c-0.4,0.6-0.7,1.4-0.9,2.2c-0.2,0.8-0.2,1.7-0.2,2.5C268.9,20.3,269,21.1,269.2,21.9z"/>
		<path class="st1" d="M293.6,8.7v2.7h0.1c0.7-1.2,1.6-2,2.7-2.5c1.1-0.5,2.3-0.8,3.7-0.8c1.7,0,3.1,0.3,4.4,1
			c1.2,0.6,2.2,1.5,3,2.5c0.8,1.1,1.4,2.3,1.8,3.7c0.4,1.4,0.6,2.9,0.6,4.4c0,1.4-0.2,2.8-0.6,4.2c-0.4,1.3-1,2.5-1.8,3.5
			c-0.8,1-1.8,1.8-2.9,2.5c-1.2,0.6-2.6,0.9-4.1,0.9c-1.3,0-2.6-0.3-3.7-0.8c-1.1-0.5-2-1.3-2.8-2.4h-0.1v10.2H288v-29H293.6z
			 M301.3,25.7c0.7-0.4,1.2-0.9,1.6-1.5c0.4-0.6,0.7-1.3,0.9-2.2c0.2-0.8,0.2-1.7,0.2-2.5s-0.1-1.7-0.3-2.5
			c-0.2-0.8-0.5-1.6-0.9-2.2c-0.4-0.7-0.9-1.2-1.6-1.6c-0.7-0.4-1.4-0.6-2.4-0.6c-1,0-1.8,0.2-2.4,0.6c-0.7,0.4-1.2,0.9-1.6,1.6
			c-0.4,0.6-0.7,1.4-0.9,2.2c-0.2,0.8-0.2,1.7-0.2,2.6c0,0.9,0.1,1.7,0.3,2.5c0.2,0.8,0.5,1.6,0.9,2.2c0.4,0.6,0.9,1.1,1.6,1.5
			c0.7,0.4,1.5,0.6,2.4,0.6C299.8,26.3,300.7,26.1,301.3,25.7z"/>
		<path class="st1" d="M327.6,27.4c-0.7,1.2-1.6,2-2.7,2.5s-2.4,0.8-3.8,0.8c-1.6,0-3-0.3-4.2-0.9c-1.2-0.6-2.2-1.5-3-2.5
			c-0.8-1.1-1.4-2.3-1.8-3.7c-0.4-1.4-0.6-2.8-0.6-4.3c0-1.4,0.2-2.8,0.6-4.2c0.4-1.3,1-2.5,1.8-3.6c0.8-1,1.8-1.8,3-2.5
			c1.2-0.6,2.6-0.9,4.2-0.9c1.3,0,2.5,0.3,3.6,0.8c1.1,0.5,2.1,1.3,2.7,2.4h0.1V0.5h5.9v29.7h-5.6L327.6,27.4L327.6,27.4z
			 M327.4,16.8c-0.2-0.8-0.5-1.5-0.9-2.2c-0.4-0.6-0.9-1.1-1.6-1.5c-0.6-0.4-1.4-0.6-2.4-0.6c-1,0-1.8,0.2-2.5,0.6
			c-0.7,0.4-1.2,0.9-1.6,1.5c-0.4,0.6-0.7,1.4-0.9,2.2c-0.2,0.8-0.3,1.7-0.3,2.6c0,0.8,0.1,1.7,0.3,2.5c0.2,0.8,0.5,1.6,0.9,2.2
			c0.4,0.7,1,1.2,1.6,1.6c0.7,0.4,1.4,0.6,2.3,0.6c1,0,1.8-0.2,2.4-0.6c0.7-0.4,1.2-0.9,1.6-1.6c0.4-0.7,0.7-1.4,0.8-2.2
			c0.2-0.8,0.2-1.7,0.2-2.6C327.6,18.4,327.5,17.6,327.4,16.8z"/>
		<path class="st1" d="M336.8,14.7c0.5-1.4,1.3-2.6,2.2-3.6c1-1,2.1-1.7,3.5-2.3c1.4-0.5,2.9-0.8,4.6-0.8c1.7,0,3.2,0.3,4.6,0.8
			c1.4,0.5,2.5,1.3,3.5,2.3c1,1,1.7,2.2,2.2,3.6c0.5,1.4,0.8,3,0.8,4.7c0,1.7-0.3,3.3-0.8,4.7c-0.5,1.4-1.3,2.6-2.2,3.6
			c-1,1-2.1,1.7-3.5,2.3c-1.4,0.5-2.9,0.8-4.6,0.8c-1.7,0-3.2-0.3-4.6-0.8c-1.4-0.5-2.5-1.3-3.5-2.3c-1-1-1.7-2.2-2.2-3.6
			c-0.5-1.4-0.8-2.9-0.8-4.7C336,17.7,336.3,16.1,336.8,14.7z M342.2,21.9c0.2,0.8,0.4,1.6,0.9,2.2c0.4,0.7,0.9,1.2,1.6,1.6
			c0.7,0.4,1.5,0.6,2.5,0.6c1,0,1.8-0.2,2.5-0.6c0.7-0.4,1.2-0.9,1.6-1.6c0.4-0.7,0.7-1.4,0.9-2.2c0.2-0.8,0.2-1.7,0.2-2.5
			c0-0.9-0.1-1.7-0.2-2.5c-0.2-0.8-0.5-1.6-0.9-2.2c-0.4-0.6-0.9-1.2-1.6-1.6c-0.7-0.4-1.5-0.6-2.5-0.6c-1,0-1.8,0.2-2.5,0.6
			c-0.7,0.4-1.2,0.9-1.6,1.6c-0.4,0.6-0.7,1.4-0.9,2.2c-0.2,0.8-0.2,1.7-0.2,2.5C341.9,20.3,342,21.1,342.2,21.9z"/>
		<path class="st1" d="M372.8,8.7v3.9h-4.3v10.6c0,1,0.2,1.7,0.5,2c0.3,0.3,1,0.5,2,0.5c0.3,0,0.7,0,1,0c0.3,0,0.6-0.1,0.9-0.1v4.6
			c-0.5,0.1-1.1,0.1-1.7,0.2c-0.6,0-1.2,0-1.8,0c-0.9,0-1.8-0.1-2.6-0.2c-0.8-0.1-1.5-0.4-2.2-0.7c-0.6-0.4-1.1-0.9-1.5-1.5
			c-0.4-0.7-0.5-1.5-0.5-2.6V12.6h-3.6V8.7h3.6V2.2h5.9v6.4H372.8z"/>
		<path class="st1" d="M384.9,12.5c-0.9,0-1.7,0.2-2.4,0.6c-0.6,0.4-1.2,1-1.6,1.7c-0.4,0.7-0.7,1.4-0.9,2.2
			c-0.2,0.8-0.2,1.6-0.2,2.4c0,0.8,0.1,1.6,0.2,2.4c0.2,0.8,0.4,1.5,0.8,2.2s0.9,1.2,1.5,1.6c0.6,0.4,1.4,0.6,2.3,0.6
			c1.4,0,2.5-0.4,3.3-1.2c0.8-0.8,1.2-1.8,1.4-3.2h5.7c-0.4,2.9-1.5,5-3.3,6.5c-1.8,1.5-4.2,2.2-7,2.2c-1.6,0-3.1-0.3-4.4-0.8
			c-1.3-0.5-2.5-1.3-3.4-2.3c-0.9-1-1.7-2.1-2.2-3.5c-0.5-1.3-0.8-2.8-0.8-4.4c0-1.7,0.2-3.2,0.7-4.6c0.5-1.4,1.2-2.7,2.1-3.7
			c0.9-1,2.1-1.8,3.4-2.4c1.4-0.6,2.9-0.9,4.7-0.9c1.3,0,2.5,0.2,3.7,0.5c1.2,0.3,2.2,0.8,3.2,1.5c0.9,0.7,1.7,1.5,2.3,2.5
			c0.6,1,0.9,2.2,1,3.6h-5.8C388.9,13.8,387.4,12.5,384.9,12.5z"/>
		<path class="st1" d="M397.6,14.7c0.5-1.4,1.3-2.6,2.2-3.6c1-1,2.1-1.7,3.5-2.3c1.4-0.5,2.9-0.8,4.6-0.8c1.7,0,3.2,0.3,4.6,0.8
			c1.4,0.5,2.5,1.3,3.5,2.3c1,1,1.7,2.2,2.2,3.6c0.5,1.4,0.8,3,0.8,4.7c0,1.7-0.3,3.3-0.8,4.7c-0.5,1.4-1.3,2.6-2.2,3.6
			c-1,1-2.1,1.7-3.5,2.3c-1.4,0.5-2.9,0.8-4.6,0.8c-1.7,0-3.2-0.3-4.6-0.8c-1.4-0.5-2.5-1.3-3.5-2.3c-1-1-1.7-2.2-2.2-3.6
			c-0.5-1.4-0.8-2.9-0.8-4.7C396.8,17.7,397,16.1,397.6,14.7z M402.9,21.9c0.2,0.8,0.4,1.6,0.9,2.2c0.4,0.7,0.9,1.2,1.6,1.6
			c0.7,0.4,1.5,0.6,2.5,0.6c1,0,1.8-0.2,2.5-0.6c0.7-0.4,1.2-0.9,1.6-1.6c0.4-0.7,0.7-1.4,0.9-2.2c0.2-0.8,0.2-1.7,0.2-2.5
			c0-0.9-0.1-1.7-0.2-2.5c-0.2-0.8-0.5-1.6-0.9-2.2c-0.4-0.6-0.9-1.2-1.6-1.6c-0.7-0.4-1.5-0.6-2.5-0.6c-1,0-1.8,0.2-2.5,0.6
			c-0.7,0.4-1.2,0.9-1.6,1.6c-0.4,0.6-0.7,1.4-0.9,2.2c-0.2,0.8-0.2,1.7-0.2,2.5C402.7,20.3,402.7,21.1,402.9,21.9z"/>
		<path class="st1" d="M427.5,8.7v2.9h0.1c0.8-1.1,1.7-2,2.8-2.6c1.1-0.6,2.3-0.9,3.8-0.9c1.4,0,2.6,0.3,3.7,0.8
			c1.1,0.5,2,1.5,2.6,2.8c0.6-0.9,1.5-1.8,2.6-2.5c1.1-0.7,2.4-1.1,3.9-1.1c1.1,0,2.2,0.1,3.2,0.4c1,0.3,1.8,0.7,2.5,1.3
			c0.7,0.6,1.2,1.4,1.6,2.4c0.4,1,0.6,2.2,0.6,3.6v14.4h-5.9V18c0-0.7,0-1.4-0.1-2c-0.1-0.6-0.2-1.2-0.5-1.7
			c-0.2-0.5-0.6-0.8-1.1-1.1c-0.5-0.3-1.1-0.4-2-0.4c-0.8,0-1.5,0.2-2,0.5c-0.5,0.3-0.9,0.7-1.2,1.2c-0.3,0.5-0.5,1.1-0.6,1.7
			c-0.1,0.7-0.1,1.3-0.1,2v12h-5.9v-12c0-0.6,0-1.3,0-1.9c0-0.6-0.1-1.2-0.4-1.7c-0.2-0.5-0.6-0.9-1-1.3c-0.5-0.3-1.2-0.5-2.1-0.5
			c-0.3,0-0.6,0.1-1.1,0.2c-0.5,0.1-0.9,0.4-1.3,0.7c-0.4,0.3-0.8,0.8-1.1,1.5c-0.3,0.7-0.5,1.5-0.5,2.6v12.5h-5.9V8.7H427.5z"/>
		<path class="st1" d="M132.5,63.4v-3.7h3.9l0.7-5.1h-3.4v-3.7h3.9l1.2-8.2h4l-1.2,8.2h4l1.1-8.2h4l-1.1,8.2h3.1v3.7h-3.6l-0.7,5.1
			h3.1v3.7H148l-1.1,8.2h-4l1.1-8.2h-4l-1.2,8.2h-4l1.2-8.2H132.5z M140.4,59.7h4l0.7-5.1h-4L140.4,59.7z"/>
		<path class="st1" d="M165.7,54.1c-0.9,0-1.7,0.2-2.4,0.6c-0.6,0.4-1.2,1-1.6,1.7c-0.4,0.7-0.7,1.4-0.9,2.2
			c-0.2,0.8-0.2,1.6-0.2,2.4c0,0.8,0.1,1.6,0.2,2.4c0.2,0.8,0.4,1.5,0.8,2.2s0.9,1.2,1.5,1.6c0.6,0.4,1.4,0.6,2.3,0.6
			c1.4,0,2.5-0.4,3.3-1.2c0.8-0.8,1.2-1.8,1.4-3.2h5.7c-0.4,2.9-1.5,5-3.3,6.5c-1.8,1.5-4.2,2.2-7,2.2c-1.6,0-3.1-0.3-4.4-0.8
			c-1.3-0.5-2.5-1.3-3.4-2.3c-0.9-1-1.7-2.1-2.2-3.5c-0.5-1.3-0.8-2.8-0.8-4.4c0-1.7,0.2-3.2,0.7-4.6c0.5-1.4,1.2-2.7,2.1-3.7
			c0.9-1,2.1-1.8,3.4-2.4c1.4-0.6,2.9-0.9,4.7-0.9c1.3,0,2.5,0.2,3.7,0.5c1.2,0.3,2.2,0.8,3.2,1.5c0.9,0.7,1.7,1.5,2.3,2.5
			c0.6,1,0.9,2.2,1,3.6H170C169.6,55.3,168.2,54.1,165.7,54.1z"/>
		<path class="st1" d="M184.1,42v11.2h0.1c0.7-1.2,1.7-2.2,2.9-2.7s2.3-0.9,3.4-0.9c1.6,0,2.9,0.2,3.9,0.6c1,0.4,1.8,1,2.4,1.8
			c0.6,0.8,1,1.7,1.2,2.8c0.2,1.1,0.4,2.3,0.4,3.6v13.2h-5.9V59.5c0-1.8-0.3-3.1-0.8-4c-0.6-0.9-1.5-1.3-2.9-1.3
			c-1.6,0-2.8,0.5-3.5,1.4c-0.7,1-1.1,2.5-1.1,4.7v11.3h-5.9V42H184.1z"/>
		<path class="st1" d="M201.9,46.9V42h5.9v4.9H201.9z M207.8,50.2v21.5h-5.9V50.2H207.8z"/>
		<path class="st1" d="M217.5,42v29.7h-5.9V42H217.5z"/>
		<path class="st1" d="M227.2,42v29.7h-5.9V42H227.2z"/>
		<path class="st1" d="M236.7,42v11.2h0.1c0.7-1.2,1.7-2.2,2.9-2.7s2.3-0.9,3.4-0.9c1.6,0,2.9,0.2,3.9,0.6c1,0.4,1.8,1,2.4,1.8
			c0.6,0.8,1,1.7,1.2,2.8c0.2,1.1,0.4,2.3,0.4,3.6v13.2h-5.9V59.5c0-1.8-0.3-3.1-0.8-4c-0.6-0.9-1.5-1.3-2.9-1.3
			c-1.6,0-2.8,0.5-3.5,1.4c-0.7,1-1.1,2.5-1.1,4.7v11.3h-5.9V42H236.7z"/>
		<path class="st1" d="M254.5,56.3c0.5-1.4,1.3-2.6,2.2-3.6c1-1,2.1-1.7,3.5-2.3c1.4-0.5,2.9-0.8,4.6-0.8c1.7,0,3.2,0.3,4.6,0.8
			c1.4,0.5,2.5,1.3,3.5,2.3c1,1,1.7,2.2,2.2,3.6c0.5,1.4,0.8,3,0.8,4.7c0,1.7-0.3,3.3-0.8,4.7c-0.5,1.4-1.3,2.6-2.2,3.6
			c-1,1-2.1,1.7-3.5,2.3c-1.4,0.5-2.9,0.8-4.6,0.8c-1.7,0-3.2-0.3-4.6-0.8c-1.4-0.5-2.5-1.3-3.5-2.3c-1-1-1.7-2.2-2.2-3.6
			c-0.5-1.4-0.8-2.9-0.8-4.7C253.7,59.2,254,57.7,254.5,56.3z M259.9,63.5c0.2,0.8,0.4,1.6,0.9,2.2c0.4,0.7,0.9,1.2,1.6,1.6
			c0.7,0.4,1.5,0.6,2.5,0.6c1,0,1.8-0.2,2.5-0.6c0.7-0.4,1.2-0.9,1.6-1.6c0.4-0.7,0.7-1.4,0.9-2.2c0.2-0.8,0.2-1.7,0.2-2.5
			c0-0.9-0.1-1.7-0.2-2.5c-0.2-0.8-0.5-1.6-0.9-2.2c-0.4-0.6-0.9-1.2-1.6-1.6c-0.7-0.4-1.5-0.6-2.5-0.6c-1,0-1.8,0.2-2.5,0.6
			c-0.7,0.4-1.2,0.9-1.6,1.6c-0.4,0.6-0.7,1.4-0.9,2.2c-0.2,0.8-0.2,1.7-0.2,2.5C259.6,61.8,259.7,62.6,259.9,63.5z"/>
		<path class="st1" d="M284.3,50.2v2.7h0.1c0.7-1.2,1.6-2,2.7-2.5c1.1-0.5,2.3-0.8,3.7-0.8c1.7,0,3.1,0.3,4.4,1
			c1.2,0.6,2.2,1.5,3,2.5c0.8,1.1,1.4,2.3,1.8,3.7c0.4,1.4,0.6,2.9,0.6,4.4c0,1.4-0.2,2.8-0.6,4.2c-0.4,1.3-1,2.5-1.8,3.5
			c-0.8,1-1.8,1.8-2.9,2.5c-1.2,0.6-2.6,0.9-4.1,0.9c-1.3,0-2.6-0.3-3.7-0.8c-1.1-0.5-2-1.3-2.8-2.4h-0.1v10.2h-5.9v-29H284.3z
			 M292,67.2c0.7-0.4,1.2-0.9,1.6-1.5c0.4-0.6,0.7-1.3,0.9-2.2c0.2-0.8,0.2-1.7,0.2-2.5s-0.1-1.7-0.3-2.5c-0.2-0.8-0.5-1.6-0.9-2.2
			c-0.4-0.7-0.9-1.2-1.6-1.6c-0.7-0.4-1.4-0.6-2.4-0.6c-1,0-1.8,0.2-2.4,0.6c-0.7,0.4-1.2,0.9-1.6,1.6c-0.4,0.6-0.7,1.4-0.9,2.2
			c-0.2,0.8-0.2,1.7-0.2,2.6c0,0.9,0.1,1.7,0.3,2.5c0.2,0.8,0.5,1.6,0.9,2.2c0.4,0.6,0.9,1.1,1.6,1.5c0.7,0.4,1.5,0.6,2.4,0.6
			C290.5,67.8,291.4,67.6,292,67.2z"/>
	</g>
</g>
<g id="Guides_-_DO_NOT_PRINT">
	<rect x="-234.2" y="-52.3" style="fill:none;" width="179.5" height="178.6"/>
	<text transform="matrix(1 0 0 1 -234.1997 -46.5579)"><tspan x="0" y="0" class="st2" style="font-family:'HelveticaNeue-Bold'; font-size:8px;">Logo pairing lockups</tspan><tspan x="0" y="30" class="st2" style="font-family:'HelveticaNeue-Bold'; font-size:18px;">Username and </tspan><tspan x="0" y="48" class="st2" style="font-family:'HelveticaNeue-Bold'; font-size:18px;">hashtag stacked</tspan><tspan x="0" y="69.6" class="st2" style="font-family:'HelveticaNeue'; font-size:8px;">We use the logo pairing lockups to clearly show </tspan><tspan x="0" y="79.2" class="st2" style="font-family:'HelveticaNeue'; font-size:8px;">an account and a hashtag is on Twitter. When </tspan><tspan x="0" y="88.8" class="st2" style="font-family:'HelveticaNeue'; font-size:8px;">pairing them with the Twitter logo, make sure to </tspan><tspan x="0" y="98.4" class="st2" style="font-family:'HelveticaNeue'; font-size:8px;">use our logo once, in blue or white, and we </tspan><tspan x="0" y="108" class="st2" style="font-family:'HelveticaNeue'; font-size:8px;">recommend pairing it with the username and </tspan><tspan x="0" y="117.6" class="st2" style="font-family:'HelveticaNeue'; font-size:8px;">hashtag in black. Observe our clear space rules, </tspan><tspan x="0" y="127.2" class="st2" style="font-family:'HelveticaNeue'; font-size:8px;">and scale the text to 100% of the height of the </tspan><tspan x="0" y="136.8" class="st2" style="font-family:'HelveticaNeue'; font-size:8px;">logo. Feel free to use a typeface that’s from your </tspan><tspan x="0" y="146.4" class="st2" style="font-family:'HelveticaNeue'; font-size:8px;">brand’s design system.</tspan><tspan x="0" y="165.6" class="st2" style="font-family:'HelveticaNeue'; font-size:8px;">Check out our Brand Guidelines for more details.</tspan></text>
</g>
</svg>
